<svg width="640" height="480" xmlns="http://www.w3.org/2000/svg">
 <title>mint green elephant</title>

 <g>
  <title>background</title>
  <rect x="-1" y="-1" width="642" height="482" id="canvas_background" fill="none"/>
 </g>
 <g>
  <title>Layer 1</title>
  <path d="m560.65448,96.7961l0.18134,0.41372l0,0.16549l0,0.24823l0.18133,0.24821l0.27203,0.1655l0.27198,0.16549l0.18133,0.24822l0.18134,0.24822l0.27197,0.1655l0.45331,0.82743l0.45331,0.82743l0.27197,0.16549l0.18133,0.24822l0.18134,0.24822l0.27197,0.16549l0.27197,0.1655l0.18134,0.24822l6.52771,8.85351q6.61841,8.93623 12.96478,21.76139q6.34638,12.82515 13.14606,41.37147q6.79968,28.54633 7.07172,35.57947l0.18133,7.03316l1.08795,26.47775q1.17859,26.47776 6.61835,40.95777q5.43976,14.48001 5.43976,17.376l0,2.89603l-0.27198,0.16547l-0.18133,0.24823l-0.18134,0.24823l-0.27197,0.16549l-0.27197,0.1655l-0.18134,0.2482l-0.90661,0l-0.90668,0l-2.26654,-0.4137l-2.26654,-0.41372l-0.18134,-0.24823l-0.27203,-0.16547l-0.27197,-0.1655l-0.18134,-0.24823l-0.18133,-0.24823l-0.27198,-0.16549l-0.4533,-0.82743q-0.45331,-0.82742 -2.71985,-5.37829l-2.2666,-4.55084l-0.45331,-1.24115l-0.45331,-1.24115l-0.27197,-0.1655l-0.18134,-0.24823l-0.18133,-0.2482l-0.27198,-0.1655l-0.27197,-0.16549l-0.18133,-0.24823l-0.18134,-0.24823l-0.27197,-0.1655l-0.45331,1.65488l-0.45331,1.65484l-1.81329,11.99774q-1.81323,11.99772 -2.26654,16.54859q-0.45331,4.55087 -0.72528,7.44687l-0.18134,2.89599l-3.80786,53.36924q-3.8985,53.3692 -4.17047,59.98861l-0.18134,6.61945l-0.18133,0.82742q-0.27197,0.82746 -1.6319,11.99774q-1.35992,11.17029 -3.44519,12.16324q-1.99457,1.07563 -9.70093,1.48935q-7.70629,0.41373 -15.41259,-0.41373q-7.70636,-0.82742 -19.4925,-4.38534q-11.78613,-3.47522 -11.96746,-4.30264q-0.27198,-0.82746 -1.45063,-9.10175l-1.08795,-8.27429l-0.18133,-7.03314q-0.27198,-7.03315 -0.72529,-16.13489q-0.4533,-9.10172 -2.26654,-18.61716q-1.81329,-9.51544 -4.98645,-13.23886q-3.17321,-3.72345 -9.24762,-7.19867q-6.16504,-3.55792 -71.44217,-3.97165q-65.2771,-0.41369 -68.90359,0.82743q-3.62653,1.24115 -7.43436,4.7991q-3.8985,3.47519 -4.3518,19.61008q-0.45331,16.13488 0.72528,28.54632l1.08798,12.41144l0,0.1655q0,0.24823 -0.18134,5.79202q-0.27197,5.62649 -1.45059,7.44687q-1.08795,1.90307 -7.88766,3.97165q-6.79969,2.06857 -22.21234,2.48227q-15.41266,0.41372 -29.91868,-2.48227q-14.50604,-2.89603 -17.67923,-4.9646q-3.17318,-2.06858 -4.0798,-7.28137l-0.90665,-5.13007l-0.18133,-2.896q-0.27197,-2.89599 -4.53311,-59.98864l-4.35181,-57.09265l-0.18133,-2.896q-0.27198,-2.896 -1.63193,-24.82288l-1.35993,-21.92688l-0.27197,-0.16549l-0.18133,-0.24823l-0.90665,-0.41373l-0.90662,-0.4137l-1.81326,0l-1.81323,0l-0.18134,0.2482l-0.272,0.1655l-0.27197,0.1655l-0.18134,0.24823l-0.18133,0.24823l-0.27198,0.16549l-0.27197,0.1655q-0.18133,0.2482 -8.52231,5.79199q-8.43162,5.62653 -24.29757,16.38309q-15.86596,10.75659 -31.00663,18.36896l-15.23133,7.69507l-0.90662,0.41372q-0.90663,0.41373 -0.90663,0.66193l0,0.1655l-1.35994,0.16549q-1.35994,0.24823 -12.23946,3.97165q-10.8795,3.72345 -25.83885,7.44687q-14.95934,3.72345 -31.73192,4.13715q-16.7726,0.41372 -25.38555,-2.06858q-8.61295,-2.48227 -18.58584,-8.02606l-9.97291,-5.62652l-0.18133,-0.82743l-0.27197,-0.82742l-0.27198,-0.1655l-0.18133,-0.24823l-0.18134,-0.2482l-0.27197,-0.16549l-0.27198,-0.1655l-0.18134,-0.24823l-0.18133,-0.24823l-0.27198,-0.1655l-0.27198,-0.16549l-0.18133,-0.2482l-0.18134,-0.24823l-0.27198,-0.1655l-0.27197,-0.1655l-0.18134,-0.2482l-0.18133,-0.24823l-0.27198,-0.16549l-0.27198,-0.1655q-0.18134,-0.24823 -8.15965,-10.4256q-7.88766,-10.09463 -11.96747,-22.09238q-4.07983,-11.99771 -4.07983,-23.99545q0,-11.99774 3.62651,-20.68574q3.6265,-8.68801 8.79429,-14.64551q5.25842,-6.04022 11.15149,-11.25302l5.89308,-5.13008l3.44517,1.24115q3.35453,1.24115 4.26115,2.06857q0.90663,0.82742 1.17861,2.4823q0.18133,1.65486 2.71988,3.30971q2.4479,1.65486 2.90121,4.55087q0.45332,2.896 -4.98644,8.27428q-5.43976,5.37828 -8.61295,10.75659q-3.1732,5.3783 -3.1732,18.20346q0,12.82517 3.1732,18.61716q3.17319,5.79202 5.62109,8.68802q2.53854,2.89599 11.1515,6.86764q8.61295,3.88895 17.22591,3.88895q8.61294,0 13.14608,-2.06857q4.53313,-2.06861 11.96748,-9.76368q7.525,-7.61236 10.69818,-17.95523q3.17318,-10.34286 5.43976,-33.51089q2.26657,-23.16803 2.26657,-24.40918l0,-1.24115l-0.27199,-0.1655l-0.18134,-0.24821l0,-0.24822l0,-0.16551l0.18134,0l0.27199,0l0.4533,-8.68801q0.45332,-8.68801 2.26658,-28.13259q1.81326,-19.4446 5.43977,-37.23433q3.62649,-17.78975 9.70091,-31.44233l6.16505,-13.65258l1.63191,-1.65486q1.54128,-1.65486 8.15964,-10.09467q6.52773,-8.5225 7.43434,-8.77073q0.90663,-0.1655 0.90663,-0.99293q0,-0.82743 0.90663,-0.82743q0.90662,0 2.26656,-1.82035q1.35996,-1.90308 2.26657,-2.1513q0.90663,-0.1655 0.90663,-0.99293q0,-0.82743 14.95934,-10.59109q14.95933,-9.68092 36.71835,-19.61009q21.75903,-9.92915 37.17169,-14.0663q15.41266,-4.13715 32.63855,-4.13715q17.22592,0 33.5452,3.30972q16.31927,3.30972 41.7048,9.92916q25.38556,6.61943 67.99701,14.48001q42.61142,7.86059 58.9307,12.41145q16.31927,4.55086 27.19879,9.51544q10.87952,4.96457 21.03375,12.16323q10.24487,7.28136 13.41809,10.17736q3.17316,2.89601 3.44513,3.30973l0,-0.00001l0,0.00001zm-240.98129,-37.23433q34.45181,0 61.6506,3.30972q27.19879,3.30971 31.5506,4.71635q4.26114,1.48937 8.34097,6.45395q4.07981,4.96457 4.53314,14.89373q0.45331,9.92916 -1.35995,14.89373q-1.81326,4.96458 -11.33283,23.16803q-9.51959,18.20345 -30.82531,53.36921q-21.30573,35.16575 -37.625,55.8515q-16.31928,20.68573 -23.84427,28.29809q-7.43433,7.6951 -13.32742,11.00482q-5.89307,3.30973 -13.14606,3.30973q-7.25302,0 -11.60483,-3.55796q-4.26114,-3.47521 -11.51416,-17.5415q-7.25302,-14.06631 -13.14609,-35.99319q-5.89306,-21.9269 -6.34637,-52.12807q-0.45334,-30.20119 2.26657,-52.54178q2.71988,-22.3406 5.89306,-34.75204q3.17319,-12.41145 5.89307,-14.89374q2.71988,-2.48229 11.15149,-5.13006q8.34097,-2.73052 42.79278,-2.73052l0,0l0.00001,0zm-106.98194,124.94185l-1.81324,0l-1.35994,-0.41371q-1.35994,-0.41372 -3.35454,-2.31679l-2.08522,-1.82036l-0.45331,-1.24114l-0.45332,-1.24115l0.63466,-2.64778q0.72528,-2.73051 2.53854,-4.38537q1.81325,-1.65486 6.34637,-1.40663q4.53315,0.16551 4.98645,1.15843q0.45331,1.07564 1.35994,1.32385q0.90664,0.1655 1.63192,2.6478q0.63466,2.48227 -0.54395,5.13006q-1.08797,2.73052 -3.35454,3.97167q-2.26655,1.24112 -4.07982,1.24112z" id="svg_1" fill="#292b2c"/>
  <path d="m321.65625,56.5q36.81253,0 65.87503,3.41132q29.0625,3.41132 33.71246,4.86114q4.55314,1.53508 8.91251,6.65207q4.35938,5.11697 4.84375,15.35094q0.48441,10.23397 -1.45312,15.35096q-1.9375,5.11696 -12.10938,23.87923q-10.17191,18.76227 -32.9375,55.00754q-22.76559,36.24531 -40.20309,57.56605q-17.4375,21.32077 -25.47815,29.16678q-7.94373,7.93134 -14.24063,11.34265q-6.29691,3.41132 -14.04685,3.41132q-7.75003,0 -12.40002,-3.66715q-4.55316,-3.5819 -12.3031,-18.08004q-7.75003,-14.4981 -14.04692,-37.09812q-6.29688,-22.59997 -6.78124,-53.72827q-0.48436,-31.12831 2.42189,-54.15472q2.90622,-23.02642 6.29686,-35.81887q3.39066,-12.79245 6.29691,-15.35095q2.90625,-2.55849 11.91558,-5.28755q8.91248,-2.81433 45.72501,-2.81433z" id="svg_2" fill="#ffffff"/>
  <circle r="7.81024" cy="178" cx="211" stroke-linejoin="null" stroke-linecap="null" id="svg_3" fill="#ffffff"/>
 </g>
</svg>